<?xml version="1.0" encoding="UTF-8" standalone="no"?>
<!-- Generator: Adobe Illustrator 16.0.0, SVG Export Plug-In . SVG Version: 6.00 Build 0)  -->

<svg
   version="1.1"
   id="Layer_1"
   x="0px"
   y="0px"
   width="483"
   height="357"
   viewBox="0 0 483 357"
   enable-background="new 0 0 512 512"
   xml:space="preserve"
   sodipodi:docname="camera.svg"
   inkscape:version="1.1 (1:1.1+202105261517+ce6663b3b7)"
   xmlns:inkscape="http://www.inkscape.org/namespaces/inkscape"
   xmlns:sodipodi="http://sodipodi.sourceforge.net/DTD/sodipodi-0.dtd"
   xmlns:xlink="http://www.w3.org/1999/xlink"
   xmlns="http://www.w3.org/2000/svg"
   xmlns:svg="http://www.w3.org/2000/svg"><defs
   id="defs11"><linearGradient
     inkscape:collect="always"
     id="linearGradient1186"><stop
       style="stop-color:#1b41bf;stop-opacity:1"
       offset="0"
       id="stop1182" /><stop
       style="stop-color:#498fe5;stop-opacity:1"
       offset="1"
       id="stop1184" /></linearGradient><linearGradient
     inkscape:collect="always"
     xlink:href="#linearGradient1186"
     id="linearGradient1188"
     x1="13.954861"
     y1="448.84402"
     x2="497"
     y2="256.5"
     gradientUnits="userSpaceOnUse" /></defs><sodipodi:namedview
   id="namedview9"
   pagecolor="#ffffff"
   bordercolor="#666666"
   borderopacity="1.0"
   inkscape:pageshadow="2"
   inkscape:pageopacity="0.0"
   inkscape:pagecheckerboard="0"
   showgrid="false"
   inkscape:zoom="0.52734375"
   inkscape:cx="588.8"
   inkscape:cy="384"
   inkscape:window-width="1024"
   inkscape:window-height="719"
   inkscape:window-x="0"
   inkscape:window-y="0"
   inkscape:window-maximized="1"
   inkscape:current-layer="Layer_1" />
<g
   id="g6"
   transform="translate(-14,-78)"
   style="fill:url(#linearGradient1188);fill-opacity:1">
	<circle
   cx="255.811"
   cy="285.30899"
   r="75.217003"
   id="circle2"
   style="fill:url(#linearGradient1188);fill-opacity:1" />
	<path
   d="M 477,137 H 352.718 L 349,108 C 349,91.432 335.568,78 319,78 H 191 c -16.568,0 -30,13.432 -30,30 l -3.718,29 H 34 c -11.046,0 -20,8.454 -20,19.5 v 258 c 0,11.046 8.954,20.5 20,20.5 h 443 c 11.046,0 20,-9.454 20,-20.5 v -258 C 497,145.454 488.046,137 477,137 Z M 255.595,408.562 c -67.928,0 -122.994,-55.066 -122.994,-122.993 0,-67.928 55.066,-122.994 122.994,-122.994 67.928,0 122.994,55.066 122.994,122.994 0,67.926 -55.066,122.993 -122.994,122.993 z M 474,190 H 369 v -31 h 105 z"
   id="path4"
   style="fill:url(#linearGradient1188);fill-opacity:1" />
</g>
</svg>
