<?xml version="1.0" encoding="UTF-8" standalone="no"?>
<svg
   viewBox="0 0 362.80038 411.40039"
   version="1.1"
   id="svg14"
   sodipodi:docname="html.svg"
   inkscape:version="1.1 (1:1.1+202105261517+ce6663b3b7)"
   width="362.80038"
   height="411.40039"
   xmlns:inkscape="http://www.inkscape.org/namespaces/inkscape"
   xmlns:sodipodi="http://sodipodi.sourceforge.net/DTD/sodipodi-0.dtd"
   xmlns="http://www.w3.org/2000/svg"
   xmlns:svg="http://www.w3.org/2000/svg">
  <defs
     id="defs18" />
  <sodipodi:namedview
     id="namedview16"
     pagecolor="#ffffff"
     bordercolor="#666666"
     borderopacity="1.0"
     inkscape:pageshadow="2"
     inkscape:pageopacity="0.0"
     inkscape:pagecheckerboard="0"
     showgrid="false"
     inkscape:snap-bbox="true"
     inkscape:bbox-paths="true"
     inkscape:bbox-nodes="true"
     inkscape:snap-bbox-edge-midpoints="true"
     inkscape:snap-bbox-midpoints="true"
     inkscape:object-paths="true"
     inkscape:snap-intersection-paths="true"
     inkscape:snap-smooth-nodes="true"
     inkscape:snap-midpoints="true"
     inkscape:snap-object-midpoints="true"
     inkscape:snap-center="true"
     inkscape:snap-text-baseline="true"
     inkscape:snap-page="true"
     inkscape:zoom="0.37288834"
     inkscape:cx="516.24033"
     inkscape:cy="167.6105"
     inkscape:window-width="1024"
     inkscape:window-height="719"
     inkscape:window-x="0"
     inkscape:window-y="0"
     inkscape:window-maximized="1"
     inkscape:current-layer="svg14" />
  <title
     id="title2">HTML5 Logo</title>
  <path
     fill="#e44d26"
     d="M 33,370.40039 0,3.9e-4 h 362.8 l -33,370.2 -148.7,41.2"
     id="path6" />
  <path
     id="polygon335"
     style="fill:#264de4;fill-opacity:1;stroke-width:1.06667"
     d="M 181.5582,0 V 411.27344 L 329.80039,370.20117 362.80039,0 Z" />
  <path
     fill="#f16529"
     d="m 181.2,379.90039 v -349.5 H 32.9 l 28.3,316"
     id="path8" />
  <path
     fill="#ebebeb"
     d="m 67.4,75.70039 h 114 v 45.4 h -64.2 l 4.2,46.5 h 60 v 45.3 H 79.8 m 2,22.8 h 45.6 l 3.2,36.3 50.8,13.6 v 47.4 l -93.2,-26"
     id="path10"
     style="fill:#ffffff" />
  <polygon
     id="polygon2991"
     points="256,480.523 376.03,447.246 404.27,130.894 256,130.894 "
     style="fill:#2965f1;stroke-width:1.05551"
     transform="matrix(1.0105685,0,0,1.0105685,-77.146871,-105.01536)" />
  <polygon
     id="polygon3005"
     points="349.62,399.962 360.291,280.411 361.399,268.217 369.597,176.305 255.843,176.305 255.843,221.716 319.831,221.716 315.699,268.217 255.843,268.217 255.843,313.627 311.761,313.627 306.49,372.521 255.843,386.191 255.843,433.435 348.937,407.634 "
     style="fill:#ffffff;stroke-width:1.06596"
     transform="matrix(1.0006612,0,0,1.0006612,-74.453499,-100.72118)" />
</svg>
