<?xml version="1.0" encoding="UTF-8" standalone="no"?>
<!-- Generator: Adobe Illustrator 18.0.0, SVG Export Plug-In . SVG Version: 6.00 Build 0)  -->

<svg
   version="1.1"
   id="Capa_1"
   x="0px"
   y="0px"
   viewBox="0 0 477.06399 444.49518"
   xml:space="preserve"
   sodipodi:docname="it.svg"
   width="477.064"
   height="444.49518"
   inkscape:version="1.1 (1:1.1+202105261517+ce6663b3b7)"
   xmlns:inkscape="http://www.inkscape.org/namespaces/inkscape"
   xmlns:sodipodi="http://sodipodi.sourceforge.net/DTD/sodipodi-0.dtd"
   xmlns="http://www.w3.org/2000/svg"
   xmlns:svg="http://www.w3.org/2000/svg"><defs
   id="defs47" /><sodipodi:namedview
   id="namedview45"
   pagecolor="#ffffff"
   bordercolor="#666666"
   borderopacity="1.0"
   inkscape:pageshadow="2"
   inkscape:pageopacity="0.0"
   inkscape:pagecheckerboard="0"
   showgrid="false"
   inkscape:zoom="0.40019459"
   inkscape:cx="453.52937"
   inkscape:cy="396.05733"
   inkscape:window-width="1024"
   inkscape:window-height="719"
   inkscape:window-x="0"
   inkscape:window-y="0"
   inkscape:window-maximized="1"
   inkscape:current-layer="Capa_1" />
<g
   id="g12"
   transform="translate(0,-16.283818)"
   style="fill:#1fd96c;fill-opacity:1">
	<path
   d="m 285.447,102.43 8.201,-17.199 c 6.77,-14.21 17.982,-25.375 31.788,-32.037 h -60.099 c 5.047,9.139 4.487,19.28 -4.116,29.312 12.223,0 22.068,8.719 24.226,19.924 z"
   id="path2"
   style="fill:#1fd96c;fill-opacity:1" />
	<path
   d="m 451.613,53.194 h -56.761 c 21.415,17.028 19.008,40.074 1.818,47.24 l -8.495,3.541 c 43.761,0 43.467,-4.038 43.467,23.022 5.823,12.082 5.389,25.918 0,37.699 v 144.151 c 0,6.149 -4.986,11.135 -11.135,11.135 H 56.559 c -6.149,0 -11.135,-4.985 -11.135,-11.135 V 152.559 C 39.135,143.319 41.2,134.529 41.2,107.143 41.2,93.632 52.133,82.506 65.876,82.506 58.375,75.013 56.171,63.405 61.792,53.194 H 25.452 C 11.399,53.194 0,64.592 0,78.646 v 269.218 c 0,14.054 11.399,25.453 25.453,25.453 h 168.696 l -22.719,54.664 h -10.421 c -9.053,0 -16.398,7.345 -16.398,16.4 0,9.053 7.345,16.398 16.398,16.398 h 155.046 c 9.055,0 16.4,-7.345 16.4,-16.398 0,-9.055 -7.345,-16.4 -16.4,-16.4 h -10.419 l -22.719,-54.664 h 168.696 c 14.053,0 25.451,-11.399 25.451,-25.453 V 78.646 C 477.065,64.592 465.666,53.194 451.613,53.194 Z m -82.322,303.655 c -6.585,0 -11.927,-5.343 -11.927,-11.927 0,-6.585 5.342,-11.927 11.927,-11.927 6.585,0 11.927,5.342 11.927,11.927 0,6.584 -5.342,11.927 -11.927,11.927 z m 38.761,0 c -6.585,0 -11.927,-5.343 -11.927,-11.927 0,-6.585 5.342,-11.927 11.927,-11.927 6.585,0 11.927,5.342 11.927,11.927 0,6.584 -5.341,11.927 -11.927,11.927 z"
   id="path4"
   style="fill:#1fd96c;fill-opacity:1" />
	<path
   d="m 89.792,83.919 c -2.438,4.597 -4.472,9.434 -6.025,14.489 -11.741,0 -26.663,-2.71 -26.663,8.735 0,44.197 -4.503,40.369 26.647,40.369 1.57,5.055 3.603,9.901 6.041,14.496 -18.526,18.52 -20.95,16.804 -5.186,32.558 9.861,-10.669 19.116,-12.564 48.109,-24.645 -15.28,-10.071 -25.405,-27.332 -25.405,-46.954 0,-31.02 25.235,-56.255 56.247,-56.255 34.956,0 62.181,31.921 55.145,67.374 l 51.324,-21.4 c 0,-16.593 -4.457,-14.279 -26.665,-14.279 -1.552,-5.055 -3.602,-9.9 -6.04,-14.497 8.293,-8.3 20.794,-16.966 12.703,-25.057 -31.432,-31.439 -25.375,-31.696 -47.427,-9.652 -4.597,-2.438 -9.427,-4.48 -14.504,-6.025 0,-11.717 2.702,-26.664 -8.713,-26.664 -44.197,0 -40.361,-4.519 -40.361,26.664 -5.062,1.545 -9.907,3.587 -14.504,6.025 C 116.222,40.901 107.573,28.423 99.466,36.498 68.238,67.714 67.71,61.851 89.792,83.919 Z"
   id="path6"
   style="fill:#1fd96c;fill-opacity:1" />
	<path
   d="m 163.557,82.614 c -22.253,0 -40.345,18.099 -40.345,40.353 0,18.433 12.485,33.853 29.397,38.661 l 46.092,-19.21 c 15.358,-27.681 -5.234,-59.804 -35.144,-59.804 z"
   id="path8"
   style="fill:#1fd96c;fill-opacity:1" />
	<path
   d="m 294.92,119.543 -188.294,78.479 c -36.308,15.133 -13.914,70.86 23.123,55.456 l 188.31,-78.471 c 49.074,17.192 51.092,19.342 88.1,-4.123 20.328,-12.897 15.668,-45.159 3.198,-40.004 l -32.984,13.736 c -5.761,2.406 -12.423,-0.312 -14.846,-6.127 -16.71,-40.066 -19.24,-32.62 29.025,-52.73 12.098,-5.039 -6.957,-31.354 -30.671,-25.88 l -16.368,3.735 c -29.134,6.654 -35.703,28.838 -48.593,55.929 z"
   id="path10"
   style="fill:#1fd96c;fill-opacity:1" />
</g>
<g
   id="g14"
   transform="translate(0,-16.283818)">
</g>
<g
   id="g16"
   transform="translate(0,-16.283818)">
</g>
<g
   id="g18"
   transform="translate(0,-16.283818)">
</g>
<g
   id="g20"
   transform="translate(0,-16.283818)">
</g>
<g
   id="g22"
   transform="translate(0,-16.283818)">
</g>
<g
   id="g24"
   transform="translate(0,-16.283818)">
</g>
<g
   id="g26"
   transform="translate(0,-16.283818)">
</g>
<g
   id="g28"
   transform="translate(0,-16.283818)">
</g>
<g
   id="g30"
   transform="translate(0,-16.283818)">
</g>
<g
   id="g32"
   transform="translate(0,-16.283818)">
</g>
<g
   id="g34"
   transform="translate(0,-16.283818)">
</g>
<g
   id="g36"
   transform="translate(0,-16.283818)">
</g>
<g
   id="g38"
   transform="translate(0,-16.283818)">
</g>
<g
   id="g40"
   transform="translate(0,-16.283818)">
</g>
<g
   id="g42"
   transform="translate(0,-16.283818)">
</g>
</svg>
