<?xml version="1.0" encoding="UTF-8" standalone="no"?>
<!-- Created with Inkscape (http://www.inkscape.org/) -->

<svg
   width="131.40695mm"
   height="111.22121mm"
   viewBox="0 0 131.40695 111.22121"
   version="1.1"
   id="svg5"
   xmlns="http://www.w3.org/2000/svg"
   xmlns:svg="http://www.w3.org/2000/svg">
  <defs
     id="defs2" />
  <g
     id="layer1"
     transform="translate(-281.57007,-56.103537)">
    <path
       style="fill:#ff6600;stroke-width:1"
       d="m 323.24033,166.6192 c 0.0915,-0.38806 0.23641,-1.49111 0.32194,-2.45122 0.13139,-1.47502 0.21961,-1.71843 0.56903,-1.57004 0.22744,0.0966 0.99079,0.22855 1.69635,0.29326 1.04677,0.096 1.44373,0.007 2.15722,-0.48248 1.44786,-0.99372 1.94783,-1.87218 1.94783,-3.42235 0,-1.55126 -0.50198,-2.43233 -1.94783,-3.4188 -0.88766,-0.60562 -2.26895,-0.67034 -3.76075,-0.1762 l -0.57728,0.19121 v -3.87841 -3.87841 h 11.54546 11.54545 V 123.45202 99.078285 h -20.64513 -20.64513 l -0.0725,2.886365 -0.0725,2.88636 -4.81061,0.0698 -4.81061,0.0698 0.002,-5.842531 c 0.002,-5.580413 0.0294,-5.900084 0.60116,-7.125359 0.73754,-1.58046 2.24782,-2.978297 3.91097,-3.61979 1.20245,-0.463799 2.34169,-0.485261 25.76011,-0.485261 19.00693,0 24.7412,0.0727 25.56851,0.324158 1.49014,0.452923 3.47914,2.321034 4.2224,3.965766 l 0.61212,1.354521 0.0745,32.968686 c 0.0525,23.23207 -0.009,33.4612 -0.20931,34.63637 -0.34053,2.00105 -1.38338,3.75387 -2.82974,4.7562 -1.9503,1.35155 -2.5548,1.40137 -17.00511,1.40137 h -13.3154 z m -39.53131,-0.19267 c -0.692,-0.41702 -1.25666,-1.03315 -1.60354,-1.74969 -0.5314,-1.09774 -0.53541,-1.28977 -0.53541,-25.66355 0,-20.28181 0.0615,-24.70129 0.35325,-25.38314 0.4272,-0.99842 1.56694,-2.1056 2.54982,-2.47696 0.47845,-0.18077 5.496,-0.27288 14.86395,-0.27288 13.83332,0 14.16591,0.0117 15.25258,0.53777 0.74072,0.35858 1.32341,0.90041 1.74868,1.62608 l 0.63779,1.0883 v 24.82555 c 0,27.63068 0.11266,25.87152 -1.74778,27.29082 l -0.90587,0.69107 -14.77267,0.0652 -14.77268,0.0652 z m 17.54013,-2.44891 c 1.37605,-0.85936 1.80407,-3.26117 0.82595,-4.63481 -1.47081,-2.06556 -4.22338,-1.97157 -5.65042,0.19294 -1.54893,2.34941 0.8851,5.65945 3.63567,4.94413 0.36243,-0.0943 0.89739,-0.32027 1.1888,-0.50226 z m 8.54315,-28.72358 v -15.6505 h -10.5192 -10.51919 v 15.6505 15.65051 h 10.51919 10.5192 z m 51.5697,31.65128 c 0,-0.0999 0.31525,-0.94124 0.70056,-1.86953 l 0.70057,-1.68781 0.16744,-12.95656 c 0.0921,-7.12611 0.18094,-16.27589 0.19742,-20.33283 l 0.03,-7.37626 h 17.52451 17.52452 l 1.1678,-0.7406 c 0.77912,-0.49411 1.35216,-1.12144 1.72171,-1.88483 l 0.55392,-1.14423 -0.0679,-24.627596 -0.068,-24.627592 -0.7342,-1.059364 c -0.41753,-0.602462 -1.1994,-1.284568 -1.81282,-1.581518 -1.06971,-0.517838 -1.38765,-0.522154 -38.46642,-0.522154 -36.1813,0 -37.41853,0.01568 -38.33971,0.48583 -2.35655,1.202736 -2.61958,2.080527 -2.61958,8.742293 v 5.39612 h -5.64444 -5.64445 V 74.24532 c 0,-5.259555 0.0897,-7.217759 0.38205,-8.340155 1.1391,-4.373304 4.25499,-7.723925 8.5699,-9.215514 l 1.69553,-0.586114 h 41.69192 c 40.2887,0 41.73941,0.0164 43.10303,0.487294 4.54019,1.567847 7.68556,4.948445 8.84692,9.508529 0.57792,2.269233 0.58037,63.30968 0.003,65.7601 -1.01605,4.3095 -4.18131,7.88414 -8.33443,9.41238 -1.34326,0.49429 -2.16127,0.52645 -16.55048,0.65059 l -15.13737,0.1306 v 4.36162 4.36162 l 6.79899,0.12828 c 5.77417,0.10895 6.92007,0.19457 7.60226,0.56806 1.22085,0.66838 2.07135,1.84204 2.38093,3.28556 0.32454,1.51329 0.35343,6.55248 0.0466,8.13808 -0.27931,1.44358 -1.19354,2.72843 -2.45675,3.45271 l -1.03068,0.59094 -12.25101,0.0736 c -6.73805,0.0405 -12.251,-0.008 -12.251,-0.10816 z m 34.56389,-32.0613 c 2.24759,-1.71432 2.14979,-4.83206 -0.20631,-6.57659 -2.43997,-1.80663 -6.13536,0.22811 -6.13536,3.37823 0,3.33036 3.71329,5.20312 6.34167,3.19836 z"
       id="path21" />
  </g>
</svg>
