<?xml version="1.0" encoding="UTF-8" standalone="no"?>
<!-- Created with Inkscape (http://www.inkscape.org/) -->

<svg
   width="5.4633718mm"
   height="4.3138752mm"
   viewBox="0 0 5.4633716 4.3138752"
   version="1.1"
   id="svg40136"
   xmlns="http://www.w3.org/2000/svg"
   xmlns:svg="http://www.w3.org/2000/svg">
  <defs
     id="defs40133" />
  <path
     id="path1189"
     style="fill:#666666;fill-opacity:1;stroke:none;stroke-width:13.2293;stroke-linecap:round;paint-order:stroke markers fill"
     d="M 2.2339346,0 A 0.33183627,0.33183627 0 0 0 1.9021004,0.33182566 v 0 1.32733624 a 0.66367345,0.66367345 0 0 0 0.6636762,0.6636763 0.33183648,0.33183648 0 0 1 0.3318261,0.3318341 v 1.1614273 c 0,0.091918 -0.073999,0.1659171 -0.1659171,0.1659171 -0.091716,0 -0.1655797,-0.073669 -0.165909,-0.1653042 V 2.9865145 A 0.66367345,0.66367345 0 0 0 1.9021004,2.3228388 H 1.7361835 c 0.091919,0 0.1659169,0.073998 0.1659169,0.1659164 v 1.4932696 a 0.33183673,0.33183673 0 0 0 0.3318342,0.3318503 h 0.331842 0.331834 0.3318342 A 0.33183673,0.33183673 0 0 0 3.5612788,3.982041 V 2.6546972 A 0.66367189,0.66367189 0 0 0 2.8976106,1.9910208 0.33183648,0.33183648 0 0 1 2.565785,1.6594891 V 0.49714654 c 3.306e-4,-0.091633 0.074194,-0.16530444 0.1659086,-0.16530444 0.091919,0 0.165917,0.0739976 0.165917,0.16591703 V 1.3273446 A 0.66367345,0.66367345 0 0 0 3.5612873,1.9910208 H 3.727196 c -0.091914,0 -0.1659087,-0.074001 -0.1659087,-0.165917 V 0.3318421 A 0.33183719,0.33183719 0 0 0 3.2294531,1.635e-5 H 2.8976027 2.5657766 Z M 3.5612873,0.33183415 A 0.33183648,0.33183648 0 0 1 3.893105,0.66366827 V 0.33183415 Z m -1.6591869,0 H 1.5702663 V 0.66366827 A 0.33183648,0.33183648 0 0 1 1.9021004,0.33183415 Z m -0.331842,0 a 0.66367252,0.66367252 0 0 0 -0.57474827,0.33183412 0.66367252,0.66367252 0 0 0 -0.08892,0.331842 V 3.3183652 a 0.66367252,0.66367252 0 0 0 0.088919,0.3318335 0.66367252,0.66367252 0 0 0 0.57474827,0.3318348 z m 2.3228546,0 V 1.8251038 c 0,0.091916 -0.073994,0.1659125 -0.1659088,0.165917 0.091915,0 0.1659088,0.074001 0.1659088,0.1659171 V 3.9820335 A 0.66367252,0.66367252 0 0 0 4.4678695,3.6501987 0.66367252,0.66367252 0 0 0 4.5567812,3.3183652 V 0.99551027 A 0.66367252,0.66367252 0 0 0 3.893113,0.33183415 Z M 0.99550213,0.66366827 c -0.010826,0 -0.021515,5.633e-4 -0.032076,0.00157 a 0.66368461,0.66368461 0 0 1 0.032076,-0.00157 z m -0.0320756,0.001569 A 0.66368461,0.66368461 0 0 0 0.33183412,1.3273706 v 0.331834 A 0.33183648,0.33183648 0 0 1 0,1.9910388 v 0 0.3318341 0 A 0.33183648,0.33183648 0 0 1 0.33183412,2.6547151 V 2.9865325 A 0.66367212,0.66367212 0 0 0 0.93204613,3.6441024 C 0.77913843,3.6144906 0.66366968,3.4799271 0.66366794,3.3183646 V 2.4887882 A 0.33183646,0.33183646 0 0 0 0.33183391,2.156954 0.33183646,0.33183646 0 0 0 0.66366794,1.82512 V 0.99550227 c 1.33e-6,-0.1724405 0.13154979,-0.3141137 0.29975899,-0.3302573 z m 3.50444267,-0.00157 c 0.1832669,1.7e-6 0.3318322,0.1485668 0.331834,0.331834 V 1.8251185 a 0.33183646,0.33183646 0 0 0 0.3318344,0.331834 0.33183646,0.33183646 0 0 0 -0.3318338,0.3318342 v 0.829577 C 4.7997019,3.4799275 4.6842333,3.6144899 4.5313253,3.6441031 A 0.66367212,0.66367212 0 0 0 5.1315376,2.9865313 V 2.6547134 A 0.33183648,0.33183648 0 0 1 5.4633719,2.3228712 v 0 -0.3318341 0 A 0.33183648,0.33183648 0 0 1 5.1315375,1.6592029 V 1.3273688 A 0.66368461,0.66368461 0 0 0 4.4678692,0.66366827 Z M 1.5702663,2.1569379 V 2.322855 2.488772 c 0,-0.091919 0.073999,-0.165917 0.1659172,-0.165917 -0.091919,0 -0.1659172,-0.073999 -0.1659172,-0.1659171 z m 0,1.4948545 V 3.9836265 H 1.9021004 A 0.33183648,0.33183648 0 0 1 1.5702663,3.6517924 Z m 2.3228387,0 A 0.33183648,0.33183648 0 0 1 3.5612709,3.9836265 H 3.893105 Z" />
</svg>
