<?xml version="1.0" encoding="UTF-8" standalone="no"?>
<svg
   viewBox="0 0 122.52 122.523"
   version="1.1"
   id="svg14"
   sodipodi:docname="wp.svg"
   inkscape:version="1.1 (1:1.1+202105261517+ce6663b3b7)"
   xmlns:inkscape="http://www.inkscape.org/namespaces/inkscape"
   xmlns:sodipodi="http://sodipodi.sourceforge.net/DTD/sodipodi-0.dtd"
   xmlns="http://www.w3.org/2000/svg"
   xmlns:svg="http://www.w3.org/2000/svg">
  <defs
     id="defs18" />
  <sodipodi:namedview
     id="namedview16"
     pagecolor="#ffffff"
     bordercolor="#666666"
     borderopacity="1.0"
     inkscape:pageshadow="2"
     inkscape:pageopacity="0.0"
     inkscape:pagecheckerboard="0"
     showgrid="false"
     inkscape:zoom="0.55091696"
     inkscape:cx="144.30487"
     inkscape:cy="-258.65967"
     inkscape:window-width="1024"
     inkscape:window-height="719"
     inkscape:window-x="0"
     inkscape:window-y="0"
     inkscape:window-maximized="1"
     inkscape:current-layer="svg14" />
  <path
     id="path2"
     style="fill:#d40055"
     d="M 61.261719 0 C 27.482719 0 0 27.480766 0 61.259766 C 0 95.042766 27.482719 122.52344 61.261719 122.52344 C 95.039719 122.52344 122.52734 95.042766 122.52734 61.259766 C 122.52634 27.480766 95.039719 4.7369516e-15 61.261719 0 z M 61.261719 2.8085938 C 93.490719 2.8085938 119.71289 29.029766 119.71289 61.259766 C 119.71289 93.491766 93.490719 119.71484 61.261719 119.71484 C 29.031719 119.71484 2.8085938 93.491766 2.8085938 61.259766 C 2.8085938 29.029766 29.030719 2.8085938 61.261719 2.8085938 z M 61.261719 8.7070312 C 42.901719 8.7070312 26.748562 18.128484 17.351562 32.396484 C 18.584563 32.433484 19.747375 32.458984 20.734375 32.458984 C 26.231375 32.458984 34.740234 31.792969 34.740234 31.792969 C 37.573234 31.625969 37.906172 35.786094 35.076172 36.121094 C 35.076172 36.121094 32.2305 36.455094 29.0625 36.621094 L 48.199219 93.546875 L 59.701172 59.054688 L 51.513672 36.619141 C 48.683672 36.453141 46.001953 36.119141 46.001953 36.119141 C 43.169953 35.953141 43.501984 31.622062 46.333984 31.789062 C 46.333984 31.789062 55.013734 32.457031 60.177734 32.457031 C 65.673734 32.457031 74.183594 31.789062 74.183594 31.789062 C 77.018594 31.622062 77.350531 35.784141 74.519531 36.119141 C 74.519531 36.119141 71.667859 36.453141 68.505859 36.619141 L 87.496094 93.113281 L 92.738281 75.597656 C 95.010281 68.328656 96.740234 63.106422 96.740234 58.607422 C 96.740234 52.112422 94.40725 47.614281 92.40625 44.113281 C 89.74225 39.784281 87.244141 36.118062 87.244141 31.789062 C 87.244141 26.958063 90.909312 22.462891 96.070312 22.462891 C 96.303313 22.462891 96.524953 22.490906 96.751953 22.503906 C 87.401953 13.937906 74.943719 8.7070312 61.261719 8.7070312 z M 107.37695 36.046875 C 107.60295 37.720875 107.73047 39.516219 107.73047 41.449219 C 107.73047 46.782219 106.73438 52.777438 103.73438 60.273438 L 87.681641 106.6875 C 103.30564 97.5765 113.81445 80.649719 113.81445 61.261719 C 113.81545 52.124719 111.48195 43.532875 107.37695 36.046875 z M 13.257812 39.871094 C 10.341812 46.407094 8.7070313 53.640766 8.7070312 61.259766 C 8.7070312 82.061766 20.796172 100.03959 38.326172 108.55859 L 13.257812 39.871094 z M 62.183594 65.857422 L 46.416016 111.67578 C 51.124016 113.05978 56.102719 113.81641 61.261719 113.81641 C 67.381719 113.81641 73.251844 112.75889 78.714844 110.83789 C 78.573844 110.61289 78.444844 110.37328 78.339844 110.11328 L 62.183594 65.857422 z " />
</svg>
